<svg width="177" height="54" viewBox="0 0 177 54" fill="none" xmlns="http://www.w3.org/2000/svg">
<path d="M125.975 5.5L125.975 20.5" stroke="#56976E" stroke-width="1.5" stroke-linecap="round" stroke-linejoin="round"/>
<path d="M119.951 10.5498L125.975 4.4998L132 10.5498" stroke="#56976E" stroke-width="1.5" stroke-linecap="round" stroke-linejoin="round"/>
<path d="M144.253 18V16.4773L148.293 12.517C148.679 12.1269 149.001 11.7803 149.259 11.4773C149.516 11.1742 149.709 10.8807 149.838 10.5966C149.967 10.3125 150.031 10.0095 150.031 9.6875C150.031 9.32008 149.948 9.00568 149.781 8.74432C149.615 8.47917 149.385 8.27462 149.094 8.13068C148.802 7.98674 148.471 7.91477 148.099 7.91477C147.717 7.91477 147.382 7.99432 147.094 8.15341C146.806 8.30871 146.582 8.5303 146.423 8.81818C146.268 9.10606 146.19 9.44886 146.19 9.84659H144.185C144.185 9.10795 144.353 8.46591 144.69 7.92045C145.027 7.375 145.491 6.95265 146.082 6.65341C146.677 6.35417 147.359 6.20455 148.128 6.20455C148.908 6.20455 149.594 6.35038 150.185 6.64205C150.776 6.93371 151.234 7.33333 151.56 7.84091C151.889 8.34848 152.054 8.92803 152.054 9.57955C152.054 10.0152 151.971 10.4432 151.804 10.8636C151.637 11.2841 151.344 11.75 150.923 12.2614C150.507 12.7727 149.921 13.392 149.168 14.1193L147.162 16.1591V16.2386H152.23V18H144.253ZM158.236 18.1591C157.478 18.1591 156.8 18.017 156.202 17.733C155.603 17.4451 155.128 17.0511 154.776 16.5511C154.427 16.0511 154.241 15.4792 154.219 14.8352H156.264C156.302 15.3125 156.509 15.7027 156.884 16.0057C157.259 16.3049 157.709 16.4545 158.236 16.4545C158.649 16.4545 159.016 16.3598 159.338 16.1705C159.66 15.9811 159.914 15.7178 160.099 15.3807C160.285 15.0436 160.376 14.6591 160.372 14.2273C160.376 13.7879 160.283 13.3977 160.094 13.0568C159.904 12.7159 159.645 12.4489 159.315 12.2557C158.986 12.0587 158.607 11.9602 158.179 11.9602C157.83 11.9564 157.488 12.0208 157.151 12.1534C156.813 12.286 156.546 12.4602 156.349 12.6761L154.446 12.3636L155.054 6.36364H161.804V8.125H156.798L156.463 11.2102H156.531C156.747 10.9564 157.052 10.7462 157.446 10.5795C157.84 10.4091 158.272 10.3239 158.741 10.3239C159.446 10.3239 160.075 10.4905 160.628 10.8239C161.181 11.1534 161.616 11.608 161.935 12.1875C162.253 12.767 162.412 13.4299 162.412 14.1761C162.412 14.9451 162.234 15.6307 161.878 16.233C161.526 16.8314 161.035 17.303 160.406 17.6477C159.781 17.9886 159.058 18.1591 158.236 18.1591ZM170.537 15.8182V15.2045C170.537 14.7538 170.632 14.339 170.821 13.9602C171.014 13.5814 171.295 13.2765 171.662 13.0455C172.029 12.8144 172.474 12.6989 172.997 12.6989C173.535 12.6989 173.986 12.8144 174.349 13.0455C174.713 13.2727 174.988 13.5758 175.173 13.9545C175.363 14.3333 175.457 14.75 175.457 15.2045V15.8182C175.457 16.2689 175.363 16.6837 175.173 17.0625C174.984 17.4413 174.705 17.7462 174.338 17.9773C173.974 18.2083 173.527 18.3239 172.997 18.3239C172.467 18.3239 172.018 18.2083 171.651 17.9773C171.283 17.7462 171.005 17.4413 170.815 17.0625C170.63 16.6837 170.537 16.2689 170.537 15.8182ZM172.02 15.2045V15.8182C172.02 16.1174 172.092 16.392 172.236 16.642C172.38 16.892 172.634 17.017 172.997 17.017C173.365 17.017 173.616 16.8939 173.753 16.6477C173.893 16.3977 173.963 16.1212 173.963 15.8182V15.2045C173.963 14.9015 173.897 14.625 173.764 14.375C173.632 14.1212 173.376 13.9943 172.997 13.9943C172.641 13.9943 172.389 14.1212 172.241 14.375C172.094 14.625 172.02 14.9015 172.02 15.2045ZM164.622 9.15909V8.54545C164.622 8.09091 164.719 7.67424 164.912 7.29545C165.105 6.91667 165.385 6.61364 165.753 6.38636C166.12 6.1553 166.565 6.03977 167.088 6.03977C167.622 6.03977 168.071 6.1553 168.435 6.38636C168.802 6.61364 169.079 6.91667 169.264 7.29545C169.45 7.67424 169.543 8.09091 169.543 8.54545V9.15909C169.543 9.61364 169.448 10.0303 169.259 10.4091C169.073 10.7841 168.796 11.0852 168.429 11.3125C168.062 11.5398 167.615 11.6534 167.088 11.6534C166.554 11.6534 166.103 11.5398 165.736 11.3125C165.372 11.0852 165.096 10.7822 164.906 10.4034C164.717 10.0246 164.622 9.60985 164.622 9.15909ZM166.116 8.54545V9.15909C166.116 9.46212 166.187 9.73864 166.327 9.98864C166.471 10.2348 166.724 10.358 167.088 10.358C167.452 10.358 167.702 10.2348 167.838 9.98864C167.978 9.73864 168.048 9.46212 168.048 9.15909V8.54545C168.048 8.24242 167.982 7.96591 167.849 7.71591C167.717 7.46212 167.463 7.33523 167.088 7.33523C166.728 7.33523 166.476 7.46212 166.332 7.71591C166.188 7.9697 166.116 8.24621 166.116 8.54545ZM165.27 18L173.27 6.36364H174.69L166.69 18H165.27Z" fill="#56976E"/>
<path d="M13.1541 41.6477H11.3814C11.3132 41.2689 11.1863 40.9356 11.0007 40.6477C10.8151 40.3598 10.5878 40.1155 10.3189 39.9148C10.05 39.714 9.74882 39.5625 9.41548 39.4602C9.08594 39.358 8.73556 39.3068 8.36435 39.3068C7.69389 39.3068 7.09351 39.4754 6.56321 39.8125C6.0367 40.1496 5.62003 40.6439 5.31321 41.2955C5.01018 41.947 4.85866 42.7424 4.85866 43.6818C4.85866 44.6288 5.01018 45.428 5.31321 46.0795C5.62003 46.7311 6.03859 47.2235 6.56889 47.5568C7.0992 47.8902 7.69579 48.0568 8.35866 48.0568C8.72609 48.0568 9.07457 48.0076 9.40412 47.9091C9.73745 47.8068 10.0386 47.6572 10.3075 47.4602C10.5765 47.2633 10.8037 47.0227 10.9893 46.7386C11.1787 46.4508 11.3094 46.1212 11.3814 45.75L13.1541 45.7557C13.0594 46.3277 12.8757 46.8542 12.603 47.3352C12.334 47.8125 11.9875 48.2254 11.5632 48.5739C11.1428 48.9186 10.6617 49.1856 10.12 49.375C9.57836 49.5644 8.98745 49.6591 8.3473 49.6591C7.33973 49.6591 6.442 49.4205 5.65412 48.9432C4.86624 48.4621 4.24503 47.7746 3.79048 46.8807C3.33973 45.9867 3.11435 44.9205 3.11435 43.6818C3.11435 42.4394 3.34162 41.3731 3.79616 40.483C4.25071 39.589 4.87192 38.9034 5.6598 38.4261C6.44768 37.9451 7.34351 37.7045 8.3473 37.7045C8.96473 37.7045 9.54048 37.7936 10.0746 37.9716C10.6125 38.1458 11.0954 38.4034 11.5234 38.7443C11.9515 39.0814 12.3056 39.4943 12.5859 39.983C12.8662 40.4678 13.0556 41.0227 13.1541 41.6477ZM18.7947 49.6761C17.9766 49.6761 17.2625 49.4886 16.6527 49.1136C16.0429 48.7386 15.5694 48.214 15.2322 47.5398C14.8951 46.8655 14.7266 46.0777 14.7266 45.1761C14.7266 44.2708 14.8951 43.4792 15.2322 42.8011C15.5694 42.1231 16.0429 41.5966 16.6527 41.2216C17.2625 40.8466 17.9766 40.6591 18.7947 40.6591C19.6129 40.6591 20.3269 40.8466 20.9368 41.2216C21.5466 41.5966 22.0201 42.1231 22.3572 42.8011C22.6944 43.4792 22.8629 44.2708 22.8629 45.1761C22.8629 46.0777 22.6944 46.8655 22.3572 47.5398C22.0201 48.214 21.5466 48.7386 20.9368 49.1136C20.3269 49.4886 19.6129 49.6761 18.7947 49.6761ZM18.8004 48.25C19.3307 48.25 19.7701 48.1098 20.1186 47.8295C20.4671 47.5492 20.7247 47.1761 20.8913 46.7102C21.0618 46.2443 21.147 45.7311 21.147 45.1705C21.147 44.6136 21.0618 44.1023 20.8913 43.6364C20.7247 43.1667 20.4671 42.7898 20.1186 42.5057C19.7701 42.2216 19.3307 42.0795 18.8004 42.0795C18.2663 42.0795 17.8232 42.2216 17.4709 42.5057C17.1224 42.7898 16.8629 43.1667 16.6925 43.6364C16.5258 44.1023 16.4425 44.6136 16.4425 45.1705C16.4425 45.7311 16.5258 46.2443 16.6925 46.7102C16.8629 47.1761 17.1224 47.5492 17.4709 47.8295C17.8232 48.1098 18.2663 48.25 18.8004 48.25ZM24.7592 49.5V40.7727H26.3899V42.1932H26.4979C26.6797 41.7121 26.977 41.3371 27.3899 41.0682C27.8028 40.7955 28.2971 40.6591 28.8729 40.6591C29.4562 40.6591 29.9448 40.7955 30.3388 41.0682C30.7365 41.3409 31.0301 41.7159 31.2195 42.1932H31.3104C31.5187 41.7273 31.8501 41.3561 32.3047 41.0795C32.7592 40.7992 33.3009 40.6591 33.9297 40.6591C34.7214 40.6591 35.3672 40.9072 35.8672 41.4034C36.371 41.8996 36.6229 42.6477 36.6229 43.6477V49.5H34.924V43.8068C34.924 43.2159 34.763 42.7879 34.4411 42.5227C34.1191 42.2576 33.7346 42.125 33.2876 42.125C32.7346 42.125 32.3047 42.2955 31.9979 42.6364C31.6911 42.9735 31.5376 43.4072 31.5376 43.9375V49.5H29.8445V43.6989C29.8445 43.2254 29.6967 42.8447 29.4013 42.5568C29.1058 42.2689 28.7214 42.125 28.2479 42.125C27.9259 42.125 27.6286 42.2102 27.3558 42.3807C27.0869 42.5473 26.8691 42.7803 26.7024 43.0795C26.5395 43.3788 26.4581 43.7254 26.4581 44.1193V49.5H24.7592ZM38.8999 52.7727V40.7727H40.5589V42.1875H40.701C40.7995 42.0057 40.9415 41.7955 41.1271 41.5568C41.3127 41.3182 41.5703 41.1098 41.8999 40.9318C42.2294 40.75 42.665 40.6591 43.2067 40.6591C43.9112 40.6591 44.54 40.8371 45.093 41.1932C45.6461 41.5492 46.0798 42.0625 46.3942 42.733C46.7124 43.4034 46.8714 44.2102 46.8714 45.1534C46.8714 46.0966 46.7143 46.9053 46.3999 47.5795C46.0855 48.25 45.6536 48.767 45.1044 49.1307C44.5552 49.4905 43.9283 49.6705 43.2237 49.6705C42.6934 49.6705 42.2597 49.5814 41.9226 49.4034C41.5893 49.2254 41.3279 49.017 41.1385 48.7784C40.9491 48.5398 40.8033 48.3277 40.701 48.142H40.5987V52.7727H38.8999ZM40.5646 45.1364C40.5646 45.75 40.6536 46.2879 40.8317 46.75C41.0097 47.2121 41.2673 47.5739 41.6044 47.8352C41.9415 48.0928 42.3544 48.2216 42.843 48.2216C43.3506 48.2216 43.7749 48.0871 44.1158 47.8182C44.4567 47.5455 44.7143 47.1761 44.8885 46.7102C45.0665 46.2443 45.1555 45.7197 45.1555 45.1364C45.1555 44.5606 45.0684 44.0436 44.8942 43.5852C44.7237 43.1269 44.4661 42.7652 44.1214 42.5C43.7805 42.2348 43.3544 42.1023 42.843 42.1023C42.3506 42.1023 41.9339 42.2292 41.593 42.483C41.2559 42.7367 41.0002 43.0909 40.826 43.5455C40.6518 44 40.5646 44.5303 40.5646 45.1364ZM51.3146 49.6932C50.7616 49.6932 50.2616 49.5909 49.8146 49.3864C49.3677 49.178 49.0135 48.8769 48.7521 48.483C48.4946 48.089 48.3658 47.6061 48.3658 47.0341C48.3658 46.5417 48.4605 46.1364 48.6499 45.8182C48.8393 45.5 49.0949 45.2481 49.4169 45.0625C49.7389 44.8769 50.0987 44.7367 50.4964 44.642C50.8942 44.5473 51.2995 44.4754 51.7124 44.4261C52.2351 44.3655 52.6593 44.3163 52.9851 44.2784C53.3108 44.2367 53.5476 44.1705 53.6953 44.0795C53.843 43.9886 53.9169 43.8409 53.9169 43.6364V43.5966C53.9169 43.1004 53.7768 42.7159 53.4964 42.4432C53.2199 42.1705 52.8071 42.0341 52.2578 42.0341C51.6858 42.0341 51.2351 42.161 50.9055 42.4148C50.5798 42.6648 50.3544 42.9432 50.2294 43.25L48.6328 42.8864C48.8222 42.3561 49.0987 41.928 49.4624 41.6023C49.8298 41.2727 50.2521 41.0341 50.7294 40.8864C51.2067 40.7348 51.7086 40.6591 52.2351 40.6591C52.5836 40.6591 52.9529 40.7008 53.343 40.7841C53.737 40.8636 54.1044 41.0114 54.4453 41.2273C54.79 41.4432 55.0722 41.7519 55.2919 42.1534C55.5116 42.5511 55.6214 43.0682 55.6214 43.7045V49.5H53.9624V48.3068H53.8942C53.7843 48.5265 53.6196 48.7424 53.3999 48.9545C53.1802 49.1667 52.898 49.3428 52.5533 49.483C52.2086 49.6231 51.7957 49.6932 51.3146 49.6932ZM51.6839 48.3295C52.1536 48.3295 52.5552 48.2367 52.8885 48.0511C53.2256 47.8655 53.4813 47.6231 53.6555 47.3239C53.8336 47.0208 53.9226 46.697 53.9226 46.3523V45.2273C53.862 45.2879 53.7446 45.3447 53.5703 45.3977C53.3999 45.447 53.2048 45.4905 52.9851 45.5284C52.7654 45.5625 52.5514 45.5947 52.343 45.625C52.1347 45.6515 51.9605 45.6742 51.8203 45.6932C51.4908 45.7348 51.1896 45.8049 50.9169 45.9034C50.648 46.0019 50.4321 46.1439 50.2692 46.3295C50.1101 46.5114 50.0305 46.7538 50.0305 47.0568C50.0305 47.4773 50.1858 47.7955 50.4964 48.0114C50.8071 48.2235 51.2029 48.3295 51.6839 48.3295ZM57.8842 49.5V40.7727H59.5263V42.1591H59.6172C59.7763 41.6894 60.0566 41.3201 60.4581 41.0511C60.8634 40.7784 61.3217 40.642 61.8331 40.642C61.9392 40.642 62.0642 40.6458 62.2081 40.6534C62.3558 40.661 62.4714 40.6705 62.5547 40.6818V42.3068C62.4865 42.2879 62.3653 42.267 62.1911 42.2443C62.0168 42.2178 61.8426 42.2045 61.6683 42.2045C61.2668 42.2045 60.9089 42.2898 60.5945 42.4602C60.2839 42.6269 60.0376 42.8598 59.8558 43.1591C59.674 43.4545 59.5831 43.7917 59.5831 44.1705V49.5H57.8842ZM66.4865 49.6932C65.9335 49.6932 65.4335 49.5909 64.9865 49.3864C64.5395 49.178 64.1854 48.8769 63.924 48.483C63.6664 48.089 63.5376 47.6061 63.5376 47.0341C63.5376 46.5417 63.6323 46.1364 63.8217 45.8182C64.0111 45.5 64.2668 45.2481 64.5888 45.0625C64.9107 44.8769 65.2706 44.7367 65.6683 44.642C66.0661 44.5473 66.4714 44.4754 66.8842 44.4261C67.407 44.3655 67.8312 44.3163 68.157 44.2784C68.4827 44.2367 68.7195 44.1705 68.8672 44.0795C69.0149 43.9886 69.0888 43.8409 69.0888 43.6364V43.5966C69.0888 43.1004 68.9486 42.7159 68.6683 42.4432C68.3918 42.1705 67.9789 42.0341 67.4297 42.0341C66.8577 42.0341 66.407 42.161 66.0774 42.4148C65.7517 42.6648 65.5263 42.9432 65.4013 43.25L63.8047 42.8864C63.9941 42.3561 64.2706 41.928 64.6342 41.6023C65.0017 41.2727 65.424 41.0341 65.9013 40.8864C66.3786 40.7348 66.8804 40.6591 67.407 40.6591C67.7554 40.6591 68.1248 40.7008 68.5149 40.7841C68.9089 40.8636 69.2763 41.0114 69.6172 41.2273C69.9619 41.4432 70.2441 41.7519 70.4638 42.1534C70.6835 42.5511 70.7933 43.0682 70.7933 43.7045V49.5H69.1342V48.3068H69.0661C68.9562 48.5265 68.7914 48.7424 68.5717 48.9545C68.352 49.1667 68.0698 49.3428 67.7251 49.483C67.3804 49.6231 66.9676 49.6932 66.4865 49.6932ZM66.8558 48.3295C67.3255 48.3295 67.727 48.2367 68.0604 48.0511C68.3975 47.8655 68.6532 47.6231 68.8274 47.3239C69.0054 47.0208 69.0945 46.697 69.0945 46.3523V45.2273C69.0339 45.2879 68.9164 45.3447 68.7422 45.3977C68.5717 45.447 68.3767 45.4905 68.157 45.5284C67.9373 45.5625 67.7232 45.5947 67.5149 45.625C67.3066 45.6515 67.1323 45.6742 66.9922 45.6932C66.6626 45.7348 66.3615 45.8049 66.0888 45.9034C65.8198 46.0019 65.6039 46.1439 65.4411 46.3295C65.282 46.5114 65.2024 46.7538 65.2024 47.0568C65.2024 47.4773 65.3577 47.7955 65.6683 48.0114C65.9789 48.2235 66.3748 48.3295 66.8558 48.3295ZM76.3232 49.6705C75.6186 49.6705 74.9898 49.4905 74.4368 49.1307C73.8875 48.767 73.4557 48.25 73.1413 47.5795C72.8307 46.9053 72.6754 46.0966 72.6754 45.1534C72.6754 44.2102 72.8326 43.4034 73.147 42.733C73.4652 42.0625 73.9008 41.5492 74.4538 41.1932C75.0069 40.8371 75.6338 40.6591 76.3345 40.6591C76.8762 40.6591 77.3118 40.75 77.6413 40.9318C77.9747 41.1098 78.2322 41.3182 78.4141 41.5568C78.5997 41.7955 78.7436 42.0057 78.8459 42.1875H78.9482V37.8636H80.647V49.5H78.9879V48.142H78.8459C78.7436 48.3277 78.5959 48.5398 78.4027 48.7784C78.2133 49.017 77.9519 49.2254 77.6186 49.4034C77.2853 49.5814 76.8535 49.6705 76.3232 49.6705ZM76.6982 48.2216C77.1868 48.2216 77.5997 48.0928 77.9368 47.8352C78.2777 47.5739 78.5353 47.2121 78.7095 46.75C78.8875 46.2879 78.9766 45.75 78.9766 45.1364C78.9766 44.5303 78.8894 44 78.7152 43.5455C78.541 43.0909 78.2853 42.7367 77.9482 42.483C77.611 42.2292 77.1944 42.1023 76.6982 42.1023C76.1868 42.1023 75.7607 42.2348 75.4197 42.5C75.0788 42.7652 74.8213 43.1269 74.647 43.5852C74.4766 44.0436 74.3913 44.5606 74.3913 45.1364C74.3913 45.7197 74.4785 46.2443 74.6527 46.7102C74.8269 47.1761 75.0845 47.5455 75.4254 47.8182C75.7701 48.0871 76.1944 48.2216 76.6982 48.2216ZM86.7479 49.6761C85.9297 49.6761 85.2157 49.4886 84.6058 49.1136C83.996 48.7386 83.5225 48.214 83.1854 47.5398C82.8482 46.8655 82.6797 46.0777 82.6797 45.1761C82.6797 44.2708 82.8482 43.4792 83.1854 42.8011C83.5225 42.1231 83.996 41.5966 84.6058 41.2216C85.2157 40.8466 85.9297 40.6591 86.7479 40.6591C87.5661 40.6591 88.2801 40.8466 88.8899 41.2216C89.4998 41.5966 89.9732 42.1231 90.3104 42.8011C90.6475 43.4792 90.8161 44.2708 90.8161 45.1761C90.8161 46.0777 90.6475 46.8655 90.3104 47.5398C89.9732 48.214 89.4998 48.7386 88.8899 49.1136C88.2801 49.4886 87.5661 49.6761 86.7479 49.6761ZM86.7536 48.25C87.2839 48.25 87.7232 48.1098 88.0717 47.8295C88.4202 47.5492 88.6778 47.1761 88.8445 46.7102C89.0149 46.2443 89.1001 45.7311 89.1001 45.1705C89.1001 44.6136 89.0149 44.1023 88.8445 43.6364C88.6778 43.1667 88.4202 42.7898 88.0717 42.5057C87.7232 42.2216 87.2839 42.0795 86.7536 42.0795C86.2195 42.0795 85.7763 42.2216 85.424 42.5057C85.0755 42.7898 84.8161 43.1667 84.6456 43.6364C84.4789 44.1023 84.3956 44.6136 84.3956 45.1705C84.3956 45.7311 84.4789 46.2443 84.6456 46.7102C84.8161 47.1761 85.0755 47.5492 85.424 47.8295C85.7763 48.1098 86.2195 48.25 86.7536 48.25ZM100.623 49.6761C99.7782 49.6761 99.0509 49.4848 98.4411 49.1023C97.835 48.7159 97.3691 48.1837 97.0433 47.5057C96.7176 46.8277 96.5547 46.0511 96.5547 45.1761C96.5547 44.2898 96.7214 43.5076 97.0547 42.8295C97.388 42.1477 97.8577 41.6155 98.4638 41.233C99.0698 40.8504 99.7839 40.6591 100.606 40.6591C101.269 40.6591 101.86 40.7822 102.379 41.0284C102.897 41.2708 103.316 41.6117 103.634 42.0511C103.956 42.4905 104.147 43.0038 104.208 43.5909H102.555C102.464 43.1818 102.255 42.8295 101.93 42.5341C101.608 42.2386 101.176 42.0909 100.634 42.0909C100.161 42.0909 99.746 42.2159 99.3899 42.4659C99.0376 42.7121 98.763 43.0644 98.5661 43.5227C98.3691 43.9773 98.2706 44.5152 98.2706 45.1364C98.2706 45.7727 98.3672 46.322 98.5604 46.7841C98.7536 47.2462 99.0263 47.6042 99.3786 47.858C99.7346 48.1117 100.153 48.2386 100.634 48.2386C100.956 48.2386 101.248 48.1799 101.509 48.0625C101.774 47.9413 101.996 47.7689 102.174 47.5455C102.356 47.322 102.483 47.053 102.555 46.7386H104.208C104.147 47.303 103.964 47.8068 103.657 48.25C103.35 48.6932 102.939 49.0417 102.424 49.2955C101.913 49.5492 101.312 49.6761 100.623 49.6761ZM109.701 49.6761C108.883 49.6761 108.169 49.4886 107.559 49.1136C106.949 48.7386 106.476 48.214 106.138 47.5398C105.801 46.8655 105.633 46.0777 105.633 45.1761C105.633 44.2708 105.801 43.4792 106.138 42.8011C106.476 42.1231 106.949 41.5966 107.559 41.2216C108.169 40.8466 108.883 40.6591 109.701 40.6591C110.519 40.6591 111.233 40.8466 111.843 41.2216C112.453 41.5966 112.926 42.1231 113.263 42.8011C113.601 43.4792 113.769 44.2708 113.769 45.1761C113.769 46.0777 113.601 46.8655 113.263 47.5398C112.926 48.214 112.453 48.7386 111.843 49.1136C111.233 49.4886 110.519 49.6761 109.701 49.6761ZM109.707 48.25C110.237 48.25 110.676 48.1098 111.025 47.8295C111.373 47.5492 111.631 47.1761 111.798 46.7102C111.968 46.2443 112.053 45.7311 112.053 45.1705C112.053 44.6136 111.968 44.1023 111.798 43.6364C111.631 43.1667 111.373 42.7898 111.025 42.5057C110.676 42.2216 110.237 42.0795 109.707 42.0795C109.173 42.0795 108.729 42.2216 108.377 42.5057C108.029 42.7898 107.769 43.1667 107.599 43.6364C107.432 44.1023 107.349 44.6136 107.349 45.1705C107.349 45.7311 107.432 46.2443 107.599 46.7102C107.769 47.1761 108.029 47.5492 108.377 47.8295C108.729 48.1098 109.173 48.25 109.707 48.25ZM115.665 49.5V40.7727H117.296V42.1932H117.404C117.586 41.7121 117.883 41.3371 118.296 41.0682C118.709 40.7955 119.203 40.6591 119.779 40.6591C120.362 40.6591 120.851 40.7955 121.245 41.0682C121.643 41.3409 121.936 41.7159 122.126 42.1932H122.217C122.425 41.7273 122.756 41.3561 123.211 41.0795C123.665 40.7992 124.207 40.6591 124.836 40.6591C125.628 40.6591 126.273 40.9072 126.773 41.4034C127.277 41.8996 127.529 42.6477 127.529 43.6477V49.5H125.83V43.8068C125.83 43.2159 125.669 42.7879 125.347 42.5227C125.025 42.2576 124.641 42.125 124.194 42.125C123.641 42.125 123.211 42.2955 122.904 42.6364C122.597 42.9735 122.444 43.4072 122.444 43.9375V49.5H120.751V43.6989C120.751 43.2254 120.603 42.8447 120.308 42.5568C120.012 42.2689 119.628 42.125 119.154 42.125C118.832 42.125 118.535 42.2102 118.262 42.3807C117.993 42.5473 117.775 42.7803 117.609 43.0795C117.446 43.3788 117.364 43.7254 117.364 44.1193V49.5H115.665ZM138.069 49.6932C137.171 49.6894 136.404 49.4527 135.768 48.983C135.131 48.5133 134.645 47.8295 134.308 46.9318C133.97 46.0341 133.802 44.9527 133.802 43.6875C133.802 42.4261 133.97 41.3485 134.308 40.4545C134.648 39.5606 135.137 38.8788 135.773 38.4091C136.414 37.9394 137.179 37.7045 138.069 37.7045C138.959 37.7045 139.722 37.9413 140.359 38.4148C140.995 38.8845 141.482 39.5663 141.819 40.4602C142.16 41.3504 142.33 42.4261 142.33 43.6875C142.33 44.9564 142.162 46.0398 141.825 46.9375C141.487 47.8314 141.001 48.5152 140.364 48.9886C139.728 49.4583 138.963 49.6932 138.069 49.6932ZM138.069 48.1761C138.857 48.1761 139.472 47.7917 139.915 47.0227C140.362 46.2538 140.586 45.142 140.586 43.6875C140.586 42.7216 140.484 41.9053 140.279 41.2386C140.078 40.5682 139.789 40.0606 139.41 39.7159C139.035 39.3674 138.588 39.1932 138.069 39.1932C137.285 39.1932 136.669 39.5795 136.222 40.3523C135.775 41.125 135.55 42.2367 135.546 43.6875C135.546 44.6572 135.647 45.4773 135.847 46.1477C136.052 46.8144 136.342 47.3201 136.717 47.6648C137.092 48.0057 137.542 48.1761 138.069 48.1761ZM148.761 37.8636V49.5H146.999V39.625H146.931L144.147 41.4432V39.7614L147.05 37.8636H148.761ZM156.363 37.3182L152.613 51.25H151.096L154.846 37.3182H156.363ZM157.783 49.5V48.2273L161.721 44.1477C162.141 43.7045 162.488 43.3163 162.761 42.983C163.037 42.6458 163.244 42.3258 163.38 42.0227C163.516 41.7197 163.585 41.3977 163.585 41.0568C163.585 40.6705 163.494 40.3371 163.312 40.0568C163.13 39.7727 162.882 39.5549 162.567 39.4034C162.253 39.2481 161.899 39.1705 161.505 39.1705C161.088 39.1705 160.725 39.2557 160.414 39.4261C160.103 39.5966 159.865 39.8371 159.698 40.1477C159.531 40.4583 159.448 40.822 159.448 41.2386H157.772C157.772 40.5303 157.935 39.911 158.261 39.3807C158.586 38.8504 159.033 38.4394 159.602 38.1477C160.17 37.8523 160.816 37.7045 161.539 37.7045C162.27 37.7045 162.914 37.8504 163.471 38.142C164.031 38.4299 164.469 38.8239 164.783 39.3239C165.098 39.8201 165.255 40.3807 165.255 41.0057C165.255 41.4375 165.174 41.8598 165.011 42.2727C164.852 42.6856 164.573 43.1458 164.175 43.6534C163.778 44.1572 163.225 44.7689 162.516 45.4886L160.204 47.9091V47.9943H165.442V49.5H157.783ZM171.647 49.6591C170.867 49.6591 170.17 49.5246 169.556 49.2557C168.946 48.9867 168.463 48.6136 168.107 48.1364C167.755 47.6553 167.566 47.0985 167.539 46.4659H169.323C169.346 46.8106 169.461 47.1098 169.67 47.3636C169.882 47.6136 170.158 47.8068 170.499 47.9432C170.84 48.0795 171.219 48.1477 171.636 48.1477C172.094 48.1477 172.499 48.0682 172.852 47.9091C173.208 47.75 173.486 47.5284 173.687 47.2443C173.888 46.9564 173.988 46.625 173.988 46.25C173.988 45.8598 173.888 45.517 173.687 45.2216C173.49 44.9223 173.2 44.6875 172.817 44.517C172.439 44.3466 171.98 44.2614 171.442 44.2614H170.46V42.8295H171.442C171.874 42.8295 172.253 42.7519 172.579 42.5966C172.908 42.4413 173.166 42.2254 173.352 41.9489C173.537 41.6686 173.63 41.3409 173.63 40.9659C173.63 40.6061 173.549 40.2936 173.386 40.0284C173.227 39.7595 172.999 39.5492 172.704 39.3977C172.412 39.2462 172.067 39.1705 171.67 39.1705C171.291 39.1705 170.937 39.2405 170.607 39.3807C170.281 39.517 170.016 39.714 169.812 39.9716C169.607 40.2254 169.497 40.5303 169.482 40.8864H167.783C167.802 40.2576 167.988 39.7045 168.34 39.2273C168.696 38.75 169.166 38.3769 169.749 38.108C170.333 37.839 170.98 37.7045 171.692 37.7045C172.439 37.7045 173.083 37.8504 173.624 38.142C174.17 38.4299 174.59 38.8144 174.886 39.2955C175.185 39.7765 175.333 40.303 175.329 40.875C175.333 41.5265 175.151 42.0795 174.783 42.5341C174.42 42.9886 173.935 43.2936 173.329 43.4489V43.5398C174.102 43.6572 174.7 43.964 175.124 44.4602C175.552 44.9564 175.764 45.572 175.761 46.3068C175.764 46.947 175.586 47.5208 175.227 48.0284C174.871 48.536 174.384 48.9356 173.766 49.2273C173.149 49.5152 172.442 49.6591 171.647 49.6591Z" fill="#B4B6C1"/>
</svg>
